<?xml version="1.0" encoding="utf-8"?>
<!-- Generator: Adobe Illustrator 18.1.1, SVG Export Plug-In . SVG Version: 6.00 Build 0)  -->
<svg version="1.1" id="Layer_1" xmlns="http://www.w3.org/2000/svg" xmlns:xlink="http://www.w3.org/1999/xlink" x="0px" y="0px"
	 viewBox="0 0 354.8 70.5" width="350px" enable-background="new 0 0 354.8 70.5" xml:space="preserve">
<path fill="#fff" d="M46.6,17.5c-0.5,0.2-0.9,0.3-1.4,0.4C44.7,18,44.3,18,43.9,18c-1.2,0-2.4-0.3-3.7-0.8c-1.3-0.6-2.6-1.4-3.9-2.6
	C36,14.3,35.6,14,35,13.5c-3.5-3.1-6.6-4.6-9.2-4.6c-2.2,0-4.1,0.7-5.6,2.2s-2.3,3.3-2.3,5.4c0,2.4,1,4.3,3,5.7
	c2,1.4,4.8,2.1,8.3,2.1c0.5,0,1.2,0,2.2-0.1c0.1,0,0.1,0,0.1,0c-0.8,0.4-1.6,0.8-2.5,1c-0.8,0.2-1.7,0.3-2.5,0.3
	c-2.8,0-5.1-0.8-6.9-2.5c-1.8-1.7-2.7-3.7-2.7-6.3c0-2.8,1-5,2.9-6.7c1.9-1.7,4.5-2.5,7.6-2.5c1.7,0,3.4,0.3,4.9,0.9
	c1.5,0.6,3.3,1.7,5.2,3.3c0.4,0.3,0.9,0.7,1.6,1.3c2.7,2.2,4.7,3.3,6.2,3.3c1.3,0,2.8-0.6,4.4-1.9c1.6-1.3,2.4-1.9,2.5-1.9
	c0.1,0,0.1,0,0.2,0c0,0,0.1,0.1,0.1,0.1c0,0.1-0.8,1.1-2.5,3c-1.7,1.9-3.3,3.9-4.9,6.2c-1.5,2.2-3.4,5.4-5.8,9.7
	c-2.4,4.3-4.2,7.3-5.5,9c-2.9,3.9-5.8,6.8-8.8,8.7c-3,1.9-6,2.9-9.2,2.9c-3.2,0-5.9-1-7.9-3.1c-2-2.1-3.1-4.7-3.1-8
	c0-3.5,1.3-6.5,3.8-9s5.7-3.7,9.4-3.7c2.3,0,4.2,0.6,5.5,1.8c1.3,1.2,2,2.8,2,4.8c0,2.5-1.1,4.8-3.4,6.9c-2.3,2.1-4.7,3.1-7.4,3.1
	c-1.3,0-2.3-0.4-3.1-1.1c-0.8-0.7-1.2-1.6-1.2-2.8c0-1.9,1-3.6,3-5.4c2-1.7,3.9-2.6,5.7-2.6c0.2,0,0.3,0.1,0.4,0.1
	c0.1,0.1,0.2,0.1,0.2,0.2c0,0.2-0.4,0.4-1.2,0.7c-0.8,0.3-1.5,0.5-1.9,0.7c-1.5,0.7-2.7,1.6-3.7,2.8s-1.5,2.3-1.5,3.3
	c0,0.8,0.3,1.5,0.8,1.9c0.5,0.5,1.3,0.7,2.2,0.7c0.9,0,1.9-0.3,2.9-0.8c1-0.6,2-1.4,3-2.5c1.1-1.2,2-2.4,2.5-3.5s0.9-2.3,0.9-3.3
	c0-1.3-0.5-2.4-1.5-3.2c-1-0.8-2.4-1.2-4.2-1.2c-3.4,0-6.2,1.1-8.6,3.4C7,35,5.8,37.8,5.8,41.1c0,3,0.9,5.4,2.7,7.3
	c1.8,1.9,4.1,2.8,7,2.8c2.9,0,5.7-1,8.3-3c2.6-2,5.2-5,7.7-9.2c0.5-0.8,1.2-2,2.2-3.7C38.5,27.3,42.7,21.4,46.6,17.5z M44.4,32.1
	c-0.5,0.3-1,0.5-1.4,0.6c-0.4,0.1-0.7,0.2-1,0.2c-0.6,0-1.1-0.2-1.5-0.5s-0.6-0.8-0.6-1.3c0-0.5,0.2-1,0.7-1.4s1.1-0.6,1.8-0.6
	c0.5,0,0.9,0.1,1.4,0.3c0.4,0.2,0.9,0.6,1.4,1c1.1-0.5,2.4-1.4,3.7-2.7c1.4-1.3,3.3-3.4,5.8-6.3c4.4-5.2,7.8-8.6,10.3-10.3
	c2.5-1.7,5.1-2.5,7.8-2.5c2.7,0,5,0.8,6.7,2.5c1.7,1.6,2.6,3.7,2.6,6.3c0,2.5-0.9,4.7-2.7,6.5c-1.8,1.8-4,2.7-6.5,2.7
	c-1.9,0-3.6-0.6-4.9-1.7c-1.3-1.1-2-2.5-2-4.2c0-1.4,0.5-2.6,1.5-3.5c1-1,2.2-1.4,3.7-1.4c0.3,0,0.5,0,0.8,0.1
	c0.3,0,0.6,0.1,0.9,0.2c-1.8,0.3-3.1,0.8-4.1,1.7c-0.9,0.9-1.4,2-1.4,3.4c0,1.3,0.5,2.4,1.4,3.2c0.9,0.9,2.2,1.3,3.6,1.3
	c2.1,0,4.1-0.9,5.8-2.8c1.7-1.9,2.6-3.9,2.6-6.2c0-2.1-0.8-3.8-2.3-5.2s-3.4-2.1-5.8-2.1c-2.1,0-4.1,0.6-6.1,1.9s-4.7,3.8-8,7.4
	c-0.4,0.4-0.9,1-1.6,1.8c-5,5.6-8.8,9.2-11.4,10.6c0.3,0.5,0.5,1.1,0.7,1.6c0.2,0.6,0.2,1.2,0.2,1.8c0,1.8-0.6,4.2-1.9,7.3
	c-1.3,3.1-1.9,5.1-1.9,6.1c0,0.9,0.2,1.6,0.7,2.1c0.5,0.5,1.2,0.7,2.1,0.7c1.1,0,2.4-0.5,4-1.6c1.6-1.1,3.6-2.8,5.9-5.2
	c0.7-0.7,1.5-1.5,2.3-2.4c0.8-0.9,1.3-1.4,1.5-1.4c0.1,0,0.2,0,0.3,0.1c0.1,0,0.1,0.1,0.1,0.2c0,0.3-0.4,0.9-1.1,1.7
	c-0.8,0.9-2,2.1-3.6,3.7c-2,2-3.8,3.5-5.4,4.5c-1.6,1-3,1.4-4.2,1.4c-1.3,0-2.4-0.5-3.2-1.4c-0.8-0.9-1.2-2.2-1.2-3.7
	c0-0.8,0.2-1.8,0.5-3c0.3-1.2,1-3,1.9-5.4c0.1-0.2,0.2-0.4,0.3-0.8c0.8-1.9,1.2-3.2,1.2-4c0-0.2,0-0.5-0.1-0.7
	C44.5,32.6,44.5,32.3,44.4,32.1z M43.9,31.3c-0.3-0.4-0.7-0.8-1-1C42.6,30.1,42.3,30,42,30c-0.3,0-0.6,0.1-0.8,0.3
	c-0.2,0.2-0.3,0.4-0.3,0.7c0,0.3,0.1,0.5,0.3,0.7c0.2,0.2,0.5,0.3,0.8,0.3c0.3,0,0.5-0.1,0.8-0.2C43.1,31.7,43.5,31.5,43.9,31.3z"/>
<path fill="#fff" d="M65.3,36.5c0.5,0,1.1-0.1,2-0.3c0.9-0.2,1.5-0.3,1.8-0.3c0.3,0,0.5,0,0.6,0.1s0.1,0.2,0.1,0.4c0,0.2-0.7,1.1-2,2.5
	c-0.9,0.9-1.6,1.7-2.2,2.4c-1.9,2.1-3.4,3.9-4.4,5.4s-1.6,2.6-1.6,3.3c0,0.2,0.1,0.4,0.3,0.5s0.4,0.2,0.7,0.2c0.6,0,1.6-0.5,2.9-1.4
	c1.3-0.9,2.9-2.2,4.6-3.8c1.1-1,2.2-2.2,3.3-3.4c1.1-1.2,1.7-1.8,1.9-1.8c0.1,0,0.2,0,0.2,0.1c0,0,0.1,0.1,0.1,0.3
	c0,0.3-0.5,1-1.5,2.2c-1,1.1-2.3,2.4-3.9,4c-1.8,1.7-3.5,3-4.9,3.9S60.7,52,59.8,52c-0.9,0-1.5-0.2-2-0.7s-0.7-1.1-0.7-2
	c0-1.1,0.4-2.3,1.1-3.6c0.7-1.3,1.8-2.6,3.1-3.9c0.8-0.8,1.7-1.5,2.7-2.3c1-0.8,1.5-1.2,1.5-1.4c0-0.1-0.1-0.2-0.3-0.3
	c-0.2-0.1-0.5-0.1-1-0.1c-1.3,0-2.5,0.7-3.8,2.2c-1.2,1.5-2,2.2-2.3,2.2c-0.1,0-0.2,0-0.2-0.1s0-0.2,0-0.3c0-0.3,0.5-1,1.6-2.1
	c1.1-1.1,1.8-2.1,2.3-2.9c0.2-0.3,0.4-0.8,0.7-1.6c0.6-1.8,1.3-2.6,2-2.6c0.3,0,0.5,0.1,0.7,0.4c0.2,0.3,0.3,0.6,0.3,1
	c0,0.6-0.2,1.1-0.6,1.6c-0.4,0.5-0.6,0.7-0.6,0.8c0,0.1,0.1,0.2,0.2,0.3C64.7,36.5,65,36.5,65.3,36.5z"/>
<path fill="#fff" d="M71.4,47c-0.4,0.6-0.8,1.1-1.1,1.7c-0.3,0.5-0.4,0.9-0.4,1.2c0,0.3,0.1,0.5,0.2,0.6c0.2,0.1,0.4,0.2,0.8,0.2
	c0.7,0,1.7-0.4,3-1.3c1.3-0.9,2.9-2.2,4.7-3.9c1.1-1.1,2.2-2.2,3.3-3.4c1.1-1.2,1.7-1.8,1.8-1.8c0.1,0,0.2,0,0.3,0.1
	c0.1,0.1,0.1,0.1,0.1,0.3c0,0.3-0.4,0.9-1.2,1.8c-0.8,0.9-2,2.1-3.5,3.7c-2,1.9-3.7,3.3-5.2,4.3c-1.5,1-2.7,1.5-3.7,1.5
	c-0.9,0-1.5-0.2-2-0.7c-0.4-0.4-0.7-1.1-0.7-2c0-1.8,2.1-5.4,6.2-10.8l0.1-0.1c0.2-0.2,0.4-0.5,0.6-0.8c1-1.4,2.1-2.1,3.2-2.1
	c0.4,0,0.7,0,0.9,0.1c0.2,0.1,0.3,0.2,0.3,0.4c0,0.1-0.1,0.3-0.2,0.6c-0.1,0.3-0.3,0.5-0.5,0.7L71.4,47z M80.8,33.3
	c-0.4,0-0.6-0.1-0.9-0.3c-0.2-0.2-0.3-0.5-0.3-0.9c0-0.5,0.2-0.9,0.6-1.3c0.4-0.4,0.8-0.6,1.3-0.6c0.4,0,0.6,0.1,0.9,0.3
	c0.2,0.2,0.3,0.5,0.3,0.8c0,0.5-0.2,1-0.6,1.4C81.7,33.1,81.3,33.3,80.8,33.3z"/>
<path fill="#fff" d="M84.7,51.1c1.8-0.4,3.7-1.1,5.6-2.2c2-1.1,3.9-2.6,5.9-4.4c0.8-0.8,1.6-1.7,2.5-2.7c0.9-1,1.4-1.6,1.6-1.6
	c0.1,0,0.2,0,0.2,0.1c0,0,0.1,0.1,0.1,0.2c0,0.4-0.6,1.3-1.9,2.7S96,46,94.3,47.4c-2.1,1.6-4.2,2.9-6.3,3.7
	c-2.1,0.8-4.1,1.3-6.1,1.3c-1.4,0-2.4-0.2-3.1-0.7s-1.1-1.1-1.1-2c0-0.8,0.3-1.5,0.8-2.1c0.5-0.6,1.1-0.9,1.8-0.9
	c0.3,0,0.6,0.1,0.8,0.3c0.2,0.2,0.4,0.4,0.4,0.7c0,0.3-0.4,0.6-1.3,1c-0.9,0.4-1.3,0.8-1.3,1.3c0,0.3,0.1,0.6,0.4,0.8
	c0.2,0.2,0.6,0.3,1,0.4c0.5,0,1.2-0.2,1.8-0.6c0.7-0.4,1.4-0.9,2.2-1.6c1.6-1.4,2.9-3.1,3.9-4.9c1-1.8,1.5-3.5,1.5-4.9
	c0-0.7-0.1-1.3-0.2-1.9c-0.1-0.6-0.3-1.2-0.6-1.7c-1.7,2.2-3.1,3.9-4.1,5c-1,1.1-1.6,1.6-1.9,1.6c-0.1,0-0.1,0-0.2-0.1
	c0,0-0.1-0.1-0.1-0.3c0-0.3,0.6-1.1,1.9-2.5c1.3-1.4,2.4-2.7,3.2-4c0.4-0.5,0.7-1.3,0.9-2.3c0.2-1,0.6-1.5,1.3-1.5
	c0.3,0,0.5,0.1,0.6,0.3c0.2,0.2,0.2,0.5,0.2,0.8c0,0.5-0.1,1-0.4,1.5c-0.3,0.5-0.4,0.8-0.4,0.8c1.4,2.6,2.1,4.6,2.1,5.9
	c0,2-0.6,3.9-1.9,5.7C88.8,48.3,87,49.9,84.7,51.1z"/>
<path fill="#fff" d="M107.3,31.7h-0.5c-0.6,0-1,0-1.3-0.1c-0.3-0.1-0.4-0.2-0.4-0.4c0-0.2,0.2-0.4,0.6-0.5s1.2-0.1,2.5-0.1l5.9-6.6
	c0.4-0.5,0.7-0.8,1.1-0.9c0.3-0.1,0.8-0.2,1.5-0.2c0.3,0,0.5,0,0.7,0.1c0.2,0.1,0.3,0.2,0.3,0.3c0,0.2-0.2,0.5-0.7,1.1l-0.1,0.1
	l-4.9,5.9h0.8c0.6,0,1.1,0,1.4,0.1c0.3,0.1,0.4,0.2,0.4,0.4c0,0.2-0.2,0.4-0.7,0.5c-0.5,0.1-1.4,0.1-2.9,0.1L100,44.9
	c-1,1.2-1.7,2.2-2.1,2.9c-0.4,0.8-0.6,1.4-0.6,2.1c0,0.3,0.1,0.5,0.3,0.8c0.2,0.2,0.5,0.4,0.8,0.4c1.1,0,2.4-0.5,3.9-1.5
	c1.5-1,3.4-2.6,5.7-4.8c0.9-0.9,1.8-1.8,2.8-2.9s1.5-1.6,1.6-1.6c0.1,0,0.2,0,0.3,0.1c0.1,0.1,0.1,0.1,0.1,0.3
	c0,0.3-0.5,1.1-1.5,2.2c-1,1.1-2.3,2.4-3.9,3.9c-1.9,1.8-3.6,3.1-5.1,4c-1.5,0.8-2.8,1.2-4,1.2c-0.9,0-1.6-0.3-2.1-0.8
	c-0.5-0.5-0.7-1.3-0.7-2.3c0-1.1,0.4-2.4,1.2-3.8c0.8-1.4,2.2-3.3,4.1-5.6L107.3,31.7z"/>
<path fill="#fff" d="M110.6,47c-0.4,0.6-0.8,1.1-1.1,1.7c-0.3,0.5-0.4,0.9-0.4,1.2c0,0.3,0.1,0.5,0.2,0.6c0.2,0.1,0.4,0.2,0.8,0.2
	c0.7,0,1.7-0.4,3-1.3c1.3-0.9,2.9-2.2,4.7-3.9c1.1-1.1,2.2-2.2,3.3-3.4c1.1-1.2,1.7-1.8,1.8-1.8c0.1,0,0.2,0,0.3,0.1
	c0.1,0.1,0.1,0.1,0.1,0.3c0,0.3-0.4,0.9-1.2,1.8c-0.8,0.9-2,2.1-3.5,3.7c-2,1.9-3.7,3.3-5.2,4.3c-1.5,1-2.7,1.5-3.7,1.5
	c-0.9,0-1.5-0.2-2-0.7c-0.4-0.4-0.7-1.1-0.7-2c0-1.8,2.1-5.4,6.2-10.8l0.1-0.1c0.2-0.2,0.4-0.5,0.6-0.8c1-1.4,2.1-2.1,3.2-2.1
	c0.4,0,0.7,0,0.9,0.1c0.2,0.1,0.3,0.2,0.3,0.4c0,0.1-0.1,0.3-0.2,0.6c-0.1,0.3-0.3,0.5-0.5,0.7L110.6,47z M120,33.3
	c-0.4,0-0.6-0.1-0.9-0.3c-0.2-0.2-0.3-0.5-0.3-0.9c0-0.5,0.2-0.9,0.6-1.3c0.4-0.4,0.8-0.6,1.3-0.6c0.4,0,0.6,0.1,0.9,0.3
	c0.2,0.2,0.3,0.5,0.3,0.8c0,0.5-0.2,1-0.6,1.4C120.9,33.1,120.5,33.3,120,33.3z"/>
<path fill="#fff" d="M121.8,47.5l5.9-7.4c0.5-0.6,0.9-1.1,1.1-1.6c0.3-0.5,0.4-0.9,0.4-1.3c0-0.2-0.1-0.3-0.2-0.4c-0.1-0.1-0.3-0.2-0.4-0.2
	c-0.8,0-2.1,0.9-3.7,2.7c-1.6,1.8-2.5,2.7-2.8,2.7c-0.1,0-0.1,0-0.2-0.1c0-0.1-0.1-0.1-0.1-0.2c0-0.2,0.2-0.5,0.5-0.9
	c0.3-0.4,0.9-1.1,1.7-1.9c1.1-1.2,2.1-2.1,3-2.8c0.9-0.6,1.7-0.9,2.4-0.9c0.6,0,1.2,0.2,1.6,0.7c0.4,0.5,0.6,1.1,0.6,1.8
	c0,0.4-0.1,0.7-0.2,1.1c-0.1,0.4-0.3,0.8-0.6,1.2c1.8-1.7,3.2-2.9,4.3-3.6c1.1-0.7,2-1.1,2.8-1.1c0.6,0,1.1,0.2,1.5,0.6
	c0.4,0.4,0.6,0.9,0.6,1.6c0,1.2-1,3-2.9,5.6c-0.2,0.3-0.3,0.4-0.4,0.6c-0.2,0.3-0.6,0.8-1,1.3c-1.8,2.4-2.7,3.9-2.7,4.5
	c0,0.4,0.1,0.7,0.3,0.9c0.2,0.2,0.4,0.3,0.8,0.3c0.7,0,1.8-0.5,3.2-1.5c1.4-1,3.1-2.5,5.1-4.4c0.9-0.9,1.8-1.8,2.7-2.9
	c0.9-1.1,1.5-1.6,1.7-1.6c0.1,0,0.2,0,0.3,0.1s0.1,0.1,0.1,0.3c0,0.3-0.5,1-1.5,2.2c-1,1.1-2.3,2.5-3.9,3.9c-1.9,1.8-3.6,3.1-5,3.9
	c-1.4,0.8-2.6,1.3-3.6,1.3c-0.8,0-1.4-0.2-1.9-0.7c-0.5-0.5-0.7-1.1-0.7-1.9c0-0.7,0.2-1.5,0.7-2.5c0.5-1,1.6-2.6,3.3-4.8
	c1-1.3,1.7-2.3,2.2-3c0.5-0.8,0.7-1.3,0.7-1.5c0-0.2,0-0.3-0.1-0.5c-0.1-0.1-0.2-0.2-0.3-0.2c-0.7,0-2.1,0.9-4.1,2.6s-4.1,4-6.3,6.7
	c-0.6,0.8-1.4,1.8-2.3,2.9c-1.4,2-2.9,2.9-4.4,2.9c-0.3,0-0.5,0-0.6-0.1s-0.2-0.2-0.2-0.3c0-0.2,0.2-0.6,0.6-1.2
	C120.2,49.6,120.8,48.7,121.8,47.5z"/>
<path fill="#fff" d="M153.6,46.9c-1.6,1.7-3.1,3-4.4,3.8c-1.3,0.8-2.5,1.2-3.5,1.2c-1,0-1.8-0.3-2.4-1c-0.6-0.7-0.9-1.5-0.9-2.7
	c0-1.3,0.5-2.8,1.4-4.4c0.9-1.6,2.2-3.1,3.9-4.5c1.5-1.3,3.2-2.3,4.9-3c1.7-0.7,3.4-1.1,5-1.1c0.8,0,1.4,0.2,1.9,0.5
	s0.7,0.8,0.8,1.4c0.6-0.9,1.1-1.4,1.5-1.6s0.8-0.3,1.5-0.3c0.4,0,0.7,0,0.9,0.1c0.2,0.1,0.3,0.2,0.3,0.4c0,0.1-0.1,0.3-0.2,0.6
	c-0.1,0.3-0.3,0.5-0.5,0.7l-7.4,9.6c-0.4,0.6-0.8,1.2-1.1,1.7c-0.3,0.5-0.4,0.9-0.4,1.3c0,0.3,0.1,0.5,0.2,0.6
	c0.2,0.1,0.4,0.2,0.8,0.2c0.8,0,1.9-0.5,3.3-1.5c1.4-1,3.2-2.5,5.2-4.5c0.9-0.8,1.7-1.8,2.6-2.8c0.9-1,1.4-1.5,1.6-1.5
	c0.1,0,0.2,0,0.3,0.1s0.1,0.1,0.1,0.3c0,0.3-0.5,1-1.5,2.2c-1,1.1-2.3,2.5-3.9,3.9c-2,1.9-3.7,3.2-5.1,4c-1.4,0.8-2.6,1.2-3.6,1.2
	c-0.7,0-1.3-0.2-1.7-0.5c-0.4-0.3-0.6-0.8-0.6-1.5c0-0.6,0.1-1.1,0.2-1.6C153,47.9,153.3,47.4,153.6,46.9z M146.1,51
	c0.7,0,1.7-0.4,2.9-1.2c1.2-0.8,2.4-1.9,3.7-3.3c2.1-2.3,3.8-4.2,4.9-5.8c1.1-1.5,1.7-2.6,1.7-3.1c0-0.4-0.1-0.8-0.4-1
	c-0.3-0.2-0.7-0.3-1.2-0.3c-1,0-2.1,0.4-3.4,1.2c-1.3,0.8-2.7,1.9-4.1,3.3c-1.8,1.8-3.1,3.5-4.1,5c-1,1.5-1.4,2.8-1.4,3.8
	c0,0.5,0.1,0.9,0.4,1.1C145.3,50.9,145.7,51,146.1,51z"/>
<path fill="#fff" d="M206.9,32.9c-4.9,6.8-9.2,11.8-12.8,14.8c-3.6,3-7,4.5-10.3,4.5c-2.2,0-4-0.8-5.3-2.3c-1.4-1.5-2.1-3.5-2.1-5.9
	c0-1.6,0.3-3.2,1-4.8c0.7-1.6,1.6-3,2.9-4.4c1.5-1.6,3.3-2.9,5.3-3.8c2-1,3.9-1.5,5.6-1.5c2,0,3.5,0.5,4.6,1.5s1.7,2.4,1.7,4.2
	c0,2.6-1,5-3.1,7.3c-2.1,2.3-4.3,3.5-6.7,3.5c-1.2,0-2.1-0.3-2.9-1c-0.7-0.7-1.1-1.5-1.1-2.5c0-1.5,0.7-3,2.2-4.5s2.7-2.2,3.8-2.2
	c0.1,0,0.2,0.1,0.3,0.1c0.1,0,0.1,0.1,0.1,0.2c0,0.2-0.3,0.4-0.9,0.7s-1.1,0.6-1.4,0.8c-1,0.7-1.7,1.4-2.3,2.3
	c-0.5,0.8-0.8,1.6-0.8,2.4c0,0.9,0.3,1.6,0.8,2.1c0.5,0.5,1.3,0.7,2.3,0.7c2,0,4-1.1,5.9-3.2c1.9-2.1,2.9-4.3,2.9-6.7
	c0-1.4-0.4-2.5-1.2-3.3s-1.9-1.2-3.3-1.2c-1.1,0-2.3,0.3-3.6,0.8c-1.3,0.5-2.6,1.3-4,2.4c-2.1,1.6-3.8,3.4-4.9,5.3
	c-1.2,1.9-1.7,3.8-1.7,5.6c0,1.8,0.6,3.3,1.7,4.5c1.2,1.2,2.6,1.8,4.4,1.8c3,0,6.2-1.5,9.8-4.5c3.5-3,7.7-7.7,12.4-14.3
	c-2.6-1.3-4.6-2.9-5.9-5c-1.3-2-2-4.3-2-6.9c0-3.4,1.3-6.3,3.9-8.8c2.6-2.4,5.8-3.7,9.7-3.7h0.3c-3.8,1.1-6.8,2.9-8.9,5.4
	s-3.2,5.3-3.2,8.5c0,2.1,0.6,3.9,1.7,5.5c1.1,1.6,2.8,3,5,4.1c4.8-6.4,9-11.7,12.8-15.8s6.1-6.2,7.1-6.2c0.1,0,0.1,0,0.1,0.1
	c0,0,0,0,0,0.1c0,0.1-0.5,1-1.4,2.6c-0.9,1.6-1.8,3.2-2.6,4.7c-0.8,1.5-1.8,3.6-3.1,6.3c-2.4,4.9-4.2,8.2-5.3,10h1h0.4h0.4
	c5.3-7.6,10.5-13.7,15.8-18.3s9.6-6.9,12.8-6.9c1.2,0,2.1,0.4,2.7,1.1s1,1.7,1,3c0,1.3-0.5,2.7-1.4,4.5c-1,1.7-2.2,3.4-3.8,4.9
	c-1.2,1.2-2.5,2.1-3.7,2.8c-1.2,0.7-2.4,1-3.4,1h-0.3h-0.3c-1.4,2-3.1,3.6-5.1,4.8c-1.9,1.3-4.4,2.3-7.2,3.1
	c-2.3,3.7-4.1,6.8-5.4,9.4c-1.3,2.6-1.9,4.4-1.9,5.4c0,0.7,0.2,1.2,0.5,1.5c0.3,0.3,0.8,0.5,1.5,0.5c0.8,0,1.9-0.5,3.3-1.4
	c1.4-1,3.1-2.4,5-4.3c0.9-0.9,1.8-1.8,2.8-2.9s1.5-1.6,1.6-1.6s0.2,0,0.3,0.1s0.1,0.1,0.1,0.3c0,0.3-0.3,0.8-1,1.6s-1.9,2-3.6,3.7
	c-1.9,1.9-3.6,3.3-5.1,4.2s-2.7,1.4-3.8,1.4c-1.1,0-1.9-0.4-2.6-1.1c-0.6-0.7-0.9-1.7-0.9-2.9c0-1.3,0.5-3,1.4-5.2
	c0.9-2.2,2.4-4.9,4.3-8.1c-0.5,0.1-1.1,0.1-1.6,0.2c-0.5,0-1,0.1-1.5,0.1c-2.9,4.1-5.6,7.4-8.1,10.1c-2.5,2.6-4.1,4-4.9,4
	c0,0-0.1,0-0.1-0.1c0,0,0-0.1,0-0.1c0-0.3,0.9-2,2.6-5.2s3.3-6.2,4.8-9.1c-0.8-0.1-1.5-0.3-2.1-0.5C208,33.4,207.4,33.2,206.9,32.9z
	 M206.9,45.1c2.1-2,4.6-5.2,7.6-9.5c0.3-0.4,0.5-0.8,0.7-1c-0.1,0-0.2,0-0.4,0c-0.2,0-0.4,0-0.5,0c-0.1,0-0.2,0-0.4,0
	c-0.2,0-0.3,0-0.4,0c-0.7,1.1-1.7,2.9-3.3,5.2C208.7,42.1,207.6,43.8,206.9,45.1z M207.5,32.1c0.5,0.2,1.1,0.4,1.7,0.6
	c0.6,0.2,1.2,0.3,1.9,0.4c1.4-3,4.7-8.7,9.8-17l1.1-1.8c-4.3,4.3-8.9,9.8-13.7,16.5C208,31.5,207.7,31.9,207.5,32.1z M217.1,33.6
	c0.6,0,1.1-0.1,1.6-0.1c0.5-0.1,1-0.2,1.4-0.3c3.1-4.7,6.3-8.9,9.5-12.5s6.5-6.8,10-9.6c-3.8,2.1-7.5,4.9-10.9,8.2
	C225.3,22.6,221.4,27.4,217.1,33.6z M223.8,32.4c2.4-0.7,4.5-1.6,6.3-2.9s3.2-2.7,4.2-4.3c-0.6-0.3-1-0.7-1.3-1.2
	c-0.3-0.5-0.5-1-0.5-1.5c0-0.6,0.2-1.2,0.6-1.6s0.8-0.7,1.4-0.7c0.5,0,1,0.2,1.3,0.7s0.5,1,0.5,1.7c0,0.3,0,0.6-0.1,1
	c-0.1,0.3-0.2,0.7-0.4,1.1c0,0,0.1,0,0.2,0c0.1,0,0.2,0,0.2,0c0.6,0,1.3-0.2,2.1-0.5c0.8-0.3,1.6-0.8,2.4-1.4
	c1.9-1.5,3.4-3.2,4.7-5.3s1.9-3.8,1.9-5.2c0-0.9-0.2-1.6-0.6-2.1s-1-0.7-1.7-0.7c-1.9,0-4.4,1.8-7.7,5.3
	C233.9,18.4,229.4,24.3,223.8,32.4z M234.9,24.4c0.2-0.3,0.4-0.6,0.5-0.9c0.1-0.3,0.1-0.6,0.1-0.8c0-0.4-0.1-0.7-0.3-1
	c-0.2-0.3-0.5-0.4-0.7-0.4c-0.2,0-0.4,0.1-0.6,0.4s-0.2,0.5-0.2,0.8c0,0.4,0.1,0.7,0.3,1.1S234.5,24.2,234.9,24.4z"/>
<path fill="#fff" d="M228.6,47c-0.4,0.6-0.8,1.1-1.1,1.7c-0.3,0.5-0.4,0.9-0.4,1.2c0,0.3,0.1,0.5,0.2,0.6c0.2,0.1,0.4,0.2,0.8,0.2
	c0.7,0,1.7-0.4,3-1.3s2.9-2.2,4.7-3.9c1.1-1.1,2.2-2.2,3.3-3.4c1.1-1.2,1.7-1.8,1.8-1.8c0.1,0,0.2,0,0.3,0.1s0.1,0.1,0.1,0.3
	c0,0.3-0.4,0.9-1.2,1.8c-0.8,0.9-2,2.1-3.5,3.7c-2,1.9-3.7,3.3-5.2,4.3c-1.5,1-2.7,1.5-3.7,1.5c-0.9,0-1.5-0.2-2-0.7
	c-0.4-0.4-0.7-1.1-0.7-2c0-1.8,2.1-5.4,6.2-10.8l0.1-0.1c0.2-0.2,0.4-0.5,0.6-0.8c1-1.4,2.1-2.1,3.2-2.1c0.4,0,0.7,0,0.9,0.1
	c0.2,0.1,0.3,0.2,0.3,0.4c0,0.1-0.1,0.3-0.2,0.6c-0.1,0.3-0.3,0.5-0.5,0.7L228.6,47z M238.1,33.3c-0.4,0-0.6-0.1-0.9-0.3
	c-0.2-0.2-0.3-0.5-0.3-0.9c0-0.5,0.2-0.9,0.6-1.3c0.4-0.4,0.8-0.6,1.3-0.6c0.4,0,0.6,0.1,0.9,0.3s0.3,0.5,0.3,0.8
	c0,0.5-0.2,1-0.6,1.4C239,33.1,238.5,33.3,238.1,33.3z"/>
<path fill="#fff" d="M246.4,37.7l-10.1,13.7c5.5-2.2,10.3-5.6,14.4-10c0.7-0.7,1.1-1.1,1.2-1.1s0.2,0,0.3,0.1s0.1,0.1,0.1,0.3
	c0,1-1.7,2.8-5.1,5.6c-3.4,2.7-7.4,5-11.9,6.7c-5,7.4-8.4,12-10.3,14s-3.4,2.9-4.8,2.9c-0.8,0-1.4-0.2-1.9-0.7s-0.7-1-0.7-1.7
	c0-1.8,1.3-4.1,3.9-6.7c2.6-2.6,6.2-5.2,10.8-7.8c2-3.3,3.9-6.3,5.9-9.1c2-2.8,3.7-5.1,5.1-6.9c0.6-0.7,1.1-1.2,1.5-1.3
	c0.4-0.2,1-0.2,1.8-0.2c0.3,0,0.5,0.1,0.6,0.2c0.2,0.1,0.2,0.2,0.2,0.4c0,0.3-0.2,0.7-0.6,1.2C246.6,37.4,246.5,37.6,246.4,37.7z
	 M231.4,54.5c-3.8,2.2-6.9,4.5-9.3,6.9c-2.4,2.4-3.6,4.4-3.6,5.9c0,0.5,0.2,0.9,0.5,1.2c0.3,0.3,0.8,0.5,1.3,0.5
	c1,0,2.3-0.9,3.8-2.8C225.6,64.4,228,60.5,231.4,54.5z M248.7,33.3c-0.4,0-0.6-0.1-0.9-0.3c-0.2-0.2-0.3-0.5-0.3-0.9
	c0-0.5,0.2-0.9,0.6-1.3c0.4-0.4,0.8-0.6,1.3-0.6c0.4,0,0.6,0.1,0.9,0.3s0.3,0.5,0.3,0.8c0,0.5-0.2,1-0.6,1.4
	C249.6,33.1,249.2,33.3,248.7,33.3z"/>
<path fill="#fff" d="M258.5,46.9c-1.6,1.7-3.1,3-4.4,3.8c-1.3,0.8-2.5,1.2-3.5,1.2c-1,0-1.8-0.3-2.4-1c-0.6-0.7-0.9-1.5-0.9-2.7
	c0-1.3,0.5-2.8,1.4-4.4c0.9-1.6,2.2-3.1,3.9-4.5c1.5-1.3,3.2-2.3,4.9-3c1.7-0.7,3.4-1.1,5-1.1c0.8,0,1.4,0.2,1.9,0.5
	s0.7,0.8,0.8,1.4c0.6-0.9,1.1-1.4,1.5-1.6s0.8-0.3,1.5-0.3c0.4,0,0.7,0,0.9,0.1c0.2,0.1,0.3,0.2,0.3,0.4c0,0.1-0.1,0.3-0.2,0.6
	c-0.1,0.3-0.3,0.5-0.5,0.7l-7.4,9.6c-0.4,0.6-0.8,1.2-1.1,1.7c-0.3,0.5-0.4,0.9-0.4,1.3c0,0.3,0.1,0.5,0.2,0.6
	c0.2,0.1,0.4,0.2,0.8,0.2c0.8,0,1.9-0.5,3.3-1.5c1.4-1,3.2-2.5,5.2-4.5c0.9-0.8,1.7-1.8,2.6-2.8c0.9-1,1.4-1.5,1.6-1.5
	c0.1,0,0.2,0,0.3,0.1s0.1,0.1,0.1,0.3c0,0.3-0.5,1-1.5,2.2s-2.3,2.5-3.9,3.9c-2,1.9-3.7,3.2-5.1,4c-1.4,0.8-2.6,1.2-3.6,1.2
	c-0.7,0-1.3-0.2-1.7-0.5s-0.6-0.8-0.6-1.5c0-0.6,0.1-1.1,0.2-1.6C258,47.9,258.2,47.4,258.5,46.9z M251.1,51c0.7,0,1.7-0.4,2.9-1.2
	c1.2-0.8,2.4-1.9,3.7-3.3c2.1-2.3,3.8-4.2,4.9-5.8c1.1-1.5,1.7-2.6,1.7-3.1c0-0.4-0.1-0.8-0.4-1c-0.3-0.2-0.7-0.3-1.2-0.3
	c-1,0-2.1,0.4-3.4,1.2c-1.3,0.8-2.7,1.9-4.1,3.3c-1.8,1.8-3.1,3.5-4.1,5c-1,1.5-1.4,2.8-1.4,3.8c0,0.5,0.1,0.9,0.4,1.1
	C250.3,50.9,250.6,51,251.1,51z"/>
<path fill="#fff" d="M284.2,39c-0.3,0-0.6-0.1-0.8-0.3c-0.2-0.2-0.4-0.5-0.4-0.8c0-0.2,0.1-0.3,0.2-0.6c0.1-0.2,0.2-0.4,0.2-0.5
	c0-0.2,0-0.3-0.1-0.4c-0.1-0.1-0.3-0.1-0.5-0.1c-0.6,0-1.4,0.3-2.2,0.9c-0.8,0.6-1.9,1.6-3.4,3.2c-1.5,1.6-2.6,3-3.4,4.4
	c-0.8,1.4-1.2,2.5-1.2,3.5c0,0.8,0.2,1.5,0.6,1.9c0.4,0.4,1,0.6,1.7,0.6c1.1,0,2.5-0.6,4.1-1.7c1.6-1.1,3.4-2.7,5.3-4.8
	c0.7-0.7,1.5-1.6,2.3-2.7c0.8-1,1.3-1.4,1.4-1.4c0.1,0,0.2,0,0.3,0.1s0.1,0.1,0.1,0.3c0,0.3-0.4,0.9-1.3,1.9c-0.8,1-2,2.3-3.4,3.7
	c-1.8,1.9-3.6,3.3-5.2,4.3c-1.6,1-3.1,1.5-4.3,1.5c-1.2,0-2.2-0.4-2.9-1.3c-0.8-0.9-1.1-2-1.1-3.4c0-1.4,0.3-2.8,1-4.2
	c0.7-1.4,1.7-2.7,3.1-4c1.4-1.3,2.9-2.4,4.5-3.1s3-1.1,4.3-1.1c1,0,1.7,0.2,2.1,0.5c0.5,0.3,0.7,0.8,0.7,1.5c0,0.5-0.2,1-0.6,1.4
	S284.6,39,284.2,39z M284,30l7-3.7c1-0.5,1.7-0.9,2.3-1.1c0.6-0.2,1-0.4,1.2-0.4c0.3,0,0.5,0,0.6,0.1c0.1,0.1,0.1,0.2,0.1,0.4
	c0,0.4-0.8,1-2.4,2c-0.7,0.4-1.2,0.7-1.6,1c-1.8,1.2-3.6,2.4-5.3,3.7c-1.8,1.3-2.7,2-2.9,2c-0.2,0-0.3-0.1-0.4-0.2
	c-0.1-0.1-0.2-0.3-0.3-0.5l-2.1-7.1c0-0.2-0.1-0.3-0.1-0.4s0-0.2,0-0.3c0-0.2,0-0.3,0.1-0.4c0.1-0.1,0.2-0.2,0.3-0.2
	c0.5,0,1.4,1.3,2.7,3.9C283.6,29.3,283.9,29.7,284,30z"/>
<path fill="#fff" d="M287.9,45.9c-0.3,0.5-0.5,1.1-0.6,1.6c-0.1,0.5-0.2,1-0.2,1.5c0,0.6,0.2,1.1,0.5,1.5c0.4,0.4,0.9,0.5,1.5,0.5
	c1.2,0,2.7-0.6,4.6-1.7c1.9-1.2,3.9-2.8,6.2-5c0.8-0.8,1.7-1.7,2.6-2.7c0.9-1,1.5-1.5,1.8-1.5c0.1,0,0.1,0,0.2,0.1
	c0,0,0.1,0.1,0.1,0.3c0,0.2-0.4,0.7-1.1,1.6c-0.7,0.8-1.7,1.8-2.9,3c-2.3,2.2-4.5,4-6.6,5.2c-2,1.2-3.8,1.8-5.2,1.8
	c-1.3,0-2.3-0.4-3-1.3s-1.1-2-1.1-3.5c0-1.5,0.5-3.1,1.6-4.8s2.5-3.1,4.4-4.5c1.1-0.8,2.3-1.5,3.4-1.9c1.1-0.5,2.1-0.7,3-0.7
	c0.7,0,1.2,0.2,1.5,0.5s0.5,0.8,0.5,1.4c0,1.5-1,3.1-3.1,4.7C294,43.5,291.3,44.8,287.9,45.9z M288.3,44.6c2.8-0.9,5.1-2,6.9-3.4
	c1.8-1.4,2.7-2.7,2.7-3.9c0-0.3-0.1-0.5-0.3-0.7c-0.2-0.2-0.5-0.3-0.8-0.3c-0.8,0-2,0.8-3.6,2.3S290,42.2,288.3,44.6z"/>
<path fill="#fff" d="M316.8,43.7c-2.1,2.6-4.2,4.6-6.2,6s-3.7,2.2-5.1,2.2c-0.8,0-1.5-0.2-2-0.7s-0.7-1.1-0.7-1.9c0-0.7,0.2-1.5,0.7-2.4
	c0.5-0.9,1.5-2.3,3-4.2c0.3-0.4,0.7-0.9,1.2-1.5c1.7-2,2.5-3.2,2.5-3.6c0-0.2-0.1-0.3-0.2-0.4s-0.3-0.2-0.5-0.2
	c-0.9,0-2.2,0.8-3.9,2.5c-1.6,1.7-2.5,2.5-2.7,2.5c-0.1,0-0.1,0-0.2-0.1s-0.1-0.1-0.1-0.2c0-0.6,1-1.8,3-3.5c2-1.7,3.6-2.5,5-2.5
	c0.7,0,1.2,0.2,1.5,0.5c0.3,0.4,0.5,0.9,0.5,1.6c0,1.3-1.1,3.2-3.2,5.7l-0.1,0.1c-1.7,2-2.8,3.4-3.4,4.3c-0.6,0.9-0.8,1.5-0.8,2
	c0,0.3,0.1,0.5,0.2,0.7c0.2,0.1,0.4,0.2,0.8,0.2c0.9,0,2.2-0.7,4.1-2.2s3.7-3.3,5.5-5.6c-0.2-0.4-0.4-0.8-0.5-1.2
	c-0.1-0.4-0.2-0.8-0.2-1.2c0-1.2,0.4-2.3,1.1-3.2c0.7-0.9,1.5-1.4,2.5-1.4c0.5,0,0.8,0.1,1.1,0.4c0.3,0.3,0.4,0.7,0.4,1.1
	c0,1-0.9,2.7-2.8,5l-0.2,0.3c0.3,0.2,0.5,0.3,0.7,0.4s0.5,0.1,0.7,0.1c1.2,0,2.3-0.5,3.4-1.6s1.7-1.6,1.8-1.6c0.1,0,0.1,0,0.1,0.1
	c0,0,0,0.1,0,0.2c0,0.6-0.6,1.4-1.8,2.3s-2.4,1.5-3.5,1.5c-0.4,0-0.8-0.1-1.1-0.2C317.4,44.1,317.1,44,316.8,43.7z M316.8,42.4
	c1-1.2,1.6-2.1,2.1-2.8c0.4-0.7,0.6-1.3,0.6-1.7c0-0.3-0.1-0.5-0.2-0.6c-0.1-0.2-0.3-0.2-0.5-0.2c-0.5,0-1.1,0.4-1.6,1.2
	s-0.9,1.6-0.9,2.5c0,0.3,0,0.6,0.1,0.9C316.5,41.8,316.6,42.1,316.8,42.4z"/>
<path fill="#fff" d="M322.1,47c-0.4,0.6-0.8,1.1-1.1,1.7c-0.3,0.5-0.4,0.9-0.4,1.2c0,0.3,0.1,0.5,0.2,0.6c0.2,0.1,0.4,0.2,0.8,0.2
	c0.7,0,1.7-0.4,3-1.3s2.9-2.2,4.7-3.9c1.1-1.1,2.2-2.2,3.3-3.4c1.1-1.2,1.7-1.8,1.8-1.8c0.1,0,0.2,0,0.3,0.1s0.1,0.1,0.1,0.3
	c0,0.3-0.4,0.9-1.2,1.8c-0.8,0.9-2,2.1-3.5,3.7c-2,1.9-3.7,3.3-5.2,4.3c-1.5,1-2.7,1.5-3.7,1.5c-0.9,0-1.5-0.2-2-0.7
	c-0.4-0.4-0.7-1.1-0.7-2c0-1.8,2.1-5.4,6.2-10.8l0.1-0.1c0.2-0.2,0.4-0.5,0.6-0.8c1-1.4,2.1-2.1,3.2-2.1c0.4,0,0.7,0,0.9,0.1
	c0.2,0.1,0.3,0.2,0.3,0.4c0,0.1-0.1,0.3-0.2,0.6c-0.1,0.3-0.3,0.5-0.5,0.7L322.1,47z M331.6,33.3c-0.4,0-0.6-0.1-0.9-0.3
	c-0.2-0.2-0.3-0.5-0.3-0.9c0-0.5,0.2-0.9,0.6-1.3c0.4-0.4,0.8-0.6,1.3-0.6c0.4,0,0.6,0.1,0.9,0.3s0.3,0.5,0.3,0.8
	c0,0.5-0.2,1-0.6,1.4C332.5,33.1,332.1,33.3,331.6,33.3z"/>
<path fill="#fff" d="M345.3,39c-0.3,0-0.6-0.1-0.8-0.3c-0.2-0.2-0.4-0.5-0.4-0.8c0-0.2,0.1-0.3,0.2-0.6c0.1-0.2,0.2-0.4,0.2-0.5
	c0-0.2,0-0.3-0.1-0.4c-0.1-0.1-0.3-0.1-0.5-0.1c-0.6,0-1.4,0.3-2.2,0.9c-0.8,0.6-1.9,1.6-3.4,3.2c-1.5,1.6-2.6,3-3.4,4.4
	c-0.8,1.4-1.2,2.5-1.2,3.5c0,0.8,0.2,1.5,0.6,1.9c0.4,0.4,1,0.6,1.7,0.6c1.1,0,2.5-0.6,4.1-1.7c1.6-1.1,3.4-2.7,5.3-4.8
	c0.7-0.7,1.5-1.6,2.3-2.7c0.8-1,1.3-1.4,1.4-1.4c0.1,0,0.2,0,0.3,0.1s0.1,0.1,0.1,0.3c0,0.3-0.4,0.9-1.3,1.9c-0.8,1-2,2.3-3.4,3.7
	c-1.8,1.9-3.6,3.3-5.2,4.3c-1.6,1-3.1,1.5-4.3,1.5c-1.2,0-2.2-0.4-2.9-1.3c-0.8-0.9-1.1-2-1.1-3.4c0-1.4,0.3-2.8,1-4.2
	c0.7-1.4,1.7-2.7,3.1-4c1.4-1.3,2.9-2.4,4.5-3.1s3-1.1,4.3-1.1c1,0,1.7,0.2,2.1,0.5c0.5,0.3,0.7,0.8,0.7,1.5c0,0.5-0.2,1-0.6,1.4
	S345.7,39,345.3,39z M342.7,33.3c-0.2,0-0.3,0-0.4-0.1c-0.1-0.1-0.1-0.2-0.1-0.3c0-0.2,0.6-0.7,1.9-1.5s2.3-1.9,3.1-3
	c0.3-0.5,0.7-1.3,1.2-2.4c0.7-1.9,1.5-2.8,2.4-2.8c0.5,0,1,0.2,1.3,0.5s0.5,0.8,0.5,1.3c0,1-0.5,2-1.4,3.1s-2.3,2.2-4.1,3.3
	c-1.3,0.8-2.3,1.3-2.9,1.6C343.6,33.1,343.1,33.3,342.7,33.3z"/>
</svg>
